<svg width="1791" height="1790" xmlns="http://www.w3.org/2000/svg" xmlns:xlink="http://www.w3.org/1999/xlink" xml:space="preserve" overflow="hidden"><defs><filter id="fx0" x="-10%" y="-10%" width="120%" height="120%" filterUnits="userSpaceOnUse" primitiveUnits="userSpaceOnUse"><feComponentTransfer color-interpolation-filters="sRGB"><feFuncR type="discrete" tableValues="0 0"/><feFuncG type="discrete" tableValues="0 0"/><feFuncB type="discrete" tableValues="0 0"/><feFuncA type="linear" slope="0.631373" intercept="0"/></feComponentTransfer><feGaussianBlur stdDeviation="6.875 6.875"/></filter><clipPath id="clip1"><rect x="2179" y="117" width="1791" height="1790"/></clipPath><clipPath id="clip2"><rect x="-3" y="-3" width="1798" height="1798"/></clipPath><clipPath id="clip3"><rect x="0" y="0" width="1793" height="1792"/></clipPath><linearGradient x1="3074.5" y1="131" x2="3074.5" y2="1879" gradientUnits="userSpaceOnUse" spreadMethod="reflect" id="fill4"><stop offset="0" stop-color="#454545"/><stop offset="0.5"/><stop offset="1"/></linearGradient></defs><g clip-path="url(#clip1)" transform="translate(-2179 -117)"><g clip-path="url(#clip2)" filter="url(#fx0)" transform="translate(2178 116)"><g clip-path="url(#clip3)"><path d="M22 895.876C22 413.179 413.527 21.875 896.5 21.875 1379.47 21.875 1771 413.179 1771 895.876 1771 1378.57 1379.47 1769.88 896.5 1769.88 413.527 1769.88 22 1378.57 22 895.876ZM131.024 895.876C131.024 1318.36 473.739 1660.85 896.5 1660.85 1319.26 1660.85 1661.98 1318.36 1661.98 895.876 1661.98 473.391 1319.26 130.899 896.5 130.899 473.739 130.899 131.024 473.391 131.024 895.876Z" fill="#FF0000" fill-rule="evenodd"/></g></g><path d="M2200 1005C2200 522.304 2591.53 131 3074.5 131 3557.47 131 3949 522.304 3949 1005 3949 1487.7 3557.47 1879 3074.5 1879 2591.53 1879 2200 1487.7 2200 1005ZM2309.02 1005C2309.02 1427.49 2651.74 1769.98 3074.5 1769.98 3497.26 1769.98 3839.98 1427.49 3839.98 1005 3839.98 582.516 3497.26 240.024 3074.5 240.024 2651.74 240.024 2309.02 582.516 2309.02 1005Z" fill="url(#fill4)" fill-rule="evenodd"/></g></svg>